<svg width="1200" height="760" viewBox="0 0 1200 760" xmlns="http://www.w3.org/2000/svg">
  <rect width="1200" height="760" fill="#F8FAFC"/>

  <!-- Header -->
  <rect x="16" y="16" width="1168" height="64" rx="14" fill="#FFFFFF" stroke="#E2E8F0"/>
  <text x="36" y="56" font-family="Inter, Arial" font-size="20" fill="#0F172A">最佳化排班</text>

  <rect x="862" y="30" width="120" height="36" rx="10" fill="#FFFFFF" stroke="#E2E8F0"/>
  <text x="884" y="54" font-family="Inter, Arial" font-size="13" fill="#0F172A">載入參數</text>

  <rect x="990" y="30" width="120" height="36" rx="10" fill="#FFFFFF" stroke="#E2E8F0"/>
  <text x="1012" y="54" font-family="Inter, Arial" font-size="13" fill="#0F172A">儲存參數</text>

  <rect x="1118" y="30" width="66" height="36" rx="10" fill="#2563EB"/>
  <text x="1136" y="54" font-family="Inter, Arial" font-size="13" fill="#FFFFFF">執行</text>

  <!-- Main -->
  <rect x="16" y="96" width="1168" height="648" rx="14" fill="#FFFFFF" stroke="#E2E8F0"/>

  <!-- Left: Params -->
  <rect x="28" y="112" width="360" height="616" rx="12" fill="#FFFFFF" stroke="#E2E8F0"/>
  <text x="44" y="142" font-family="Inter, Arial" font-size="12" fill="#475569">步驟 1：選期間與參數</text>

  <text x="44" y="172" font-family="Inter, Arial" font-size="12" fill="#0F172A">排班期間</text>
  <rect x="44" y="180" width="328" height="34" rx="10" fill="#FFFFFF" stroke="#E2E8F0"/>
  <text x="56" y="202" font-family="Inter, Arial" font-size="13" fill="#0F172A">2026/01/01 ～ 2026/01/31 ▾</text>

  <text x="44" y="242" font-family="Inter, Arial" font-size="12" fill="#0F172A">硬性規則</text>
  <rect x="44" y="250" width="328" height="76" rx="10" fill="#F8FAFC" stroke="#E2E8F0"/>
  <text x="56" y="276" font-family="Inter, Arial" font-size="12" fill="#475569">✓ 連續上班 ≤ 6 天</text>
  <text x="56" y="296" font-family="Inter, Arial" font-size="12" fill="#475569">✓ 週工時 ≤ 48 小時</text>
  <text x="56" y="316" font-family="Inter, Arial" font-size="12" fill="#475569">✓ 大夜後需休 1 天</text>

  <text x="44" y="364" font-family="Inter, Arial" font-size="12" fill="#0F172A">軟性權重（可調）</text>
  <rect x="44" y="372" width="328" height="120" rx="10" fill="#FFFFFF" stroke="#E2E8F0"/>
  <text x="56" y="398" font-family="Inter, Arial" font-size="12" fill="#0F172A">夜班平均分配</text>
  <rect x="200" y="386" width="160" height="8" rx="4" fill="#E2E8F0"/>
  <rect x="200" y="386" width="96" height="8" rx="4" fill="#2563EB"/>
  <text x="56" y="426" font-family="Inter, Arial" font-size="12" fill="#0F172A">假日出勤平衡</text>
  <rect x="200" y="414" width="160" height="8" rx="4" fill="#E2E8F0"/>
  <rect x="200" y="414" width="120" height="8" rx="4" fill="#2563EB"/>
  <text x="56" y="454" font-family="Inter, Arial" font-size="12" fill="#0F172A">個人偏好滿足</text>
  <rect x="200" y="442" width="160" height="8" rx="4" fill="#E2E8F0"/>
  <rect x="200" y="442" width="80" height="8" rx="4" fill="#2563EB"/>

  <text x="44" y="522" font-family="Inter, Arial" font-size="12" fill="#0F172A">執行設定</text>
  <rect x="44" y="530" width="328" height="70" rx="10" fill="#F8FAFC" stroke="#E2E8F0"/>
  <text x="56" y="556" font-family="Inter, Arial" font-size="12" fill="#475569">解的數量：3（推薦）</text>
  <text x="56" y="578" font-family="Inter, Arial" font-size="12" fill="#475569">上限時間：60 秒（可調）</text>

  <rect x="44" y="620" width="150" height="38" rx="10" fill="#FFFFFF" stroke="#E2E8F0"/>
  <text x="70" y="645" font-family="Inter, Arial" font-size="13" fill="#0F172A">清除設定</text>
  <rect x="222" y="620" width="150" height="38" rx="10" fill="#2563EB"/>
  <text x="256" y="645" font-family="Inter, Arial" font-size="13" fill="#FFFFFF">開始最佳化</text>

  <!-- Center: Streaming logs -->
  <rect x="404" y="112" width="420" height="616" rx="12" fill="#FFFFFF" stroke="#E2E8F0"/>
  <text x="420" y="142" font-family="Inter, Arial" font-size="12" fill="#475569">步驟 2：執行狀態（Streaming）</text>

  <rect x="420" y="160" width="388" height="92" rx="12" fill="#0B1220"/>
  <text x="436" y="186" font-family="ui-monospace, SFMono-Regular, Menlo, Monaco, Consolas" font-size="12" fill="#E2E8F0">[00:01] 載入人員/規則… OK</text>
  <text x="436" y="206" font-family="ui-monospace, SFMono-Regular, Menlo, Monaco, Consolas" font-size="12" fill="#E2E8F0">[00:03] 建立限制條件… OK</text>
  <text x="436" y="226" font-family="ui-monospace, SFMono-Regular, Menlo, Monaco, Consolas" font-size="12" fill="#E2E8F0">[00:08] 搜尋解 #1… 分數 82</text>
  <text x="436" y="246" font-family="ui-monospace, SFMono-Regular, Menlo, Monaco, Consolas" font-size="12" fill="#E2E8F0">[00:15] 搜尋解 #2… 分數 86</text>

  <rect x="420" y="268" width="388" height="36" rx="10" fill="#FFFFFF" stroke="#E2E8F0"/>
  <text x="434" y="292" font-family="Inter, Arial" font-size="12" fill="#475569">可中斷：按「停止」保留目前最佳解</text>
  <rect x="728" y="268" width="80" height="36" rx="10" fill="#FFFFFF" stroke="#E2E8F0"/>
  <text x="748" y="292" font-family="Inter, Arial" font-size="13" fill="#0F172A">停止</text>

  <!-- Right: Solutions -->
  <rect x="840" y="112" width="328" height="616" rx="12" fill="#FFFFFF" stroke="#E2E8F0"/>
  <text x="856" y="142" font-family="Inter, Arial" font-size="12" fill="#475569">步驟 3：方案列表與套用</text>

  <rect x="856" y="162" width="296" height="86" rx="12" fill="#ECFDF5" stroke="#BBF7D0"/>
  <text x="872" y="190" font-family="Inter, Arial" font-size="13" fill="#065F46">方案 A（推薦）</text>
  <text x="872" y="212" font-family="Inter, Arial" font-size="12" fill="#475569">硬性違規：0 • 分數：86</text>
  <text x="872" y="232" font-family="Inter, Arial" font-size="12" fill="#475569">夜班公平：佳 • 偏好滿足：中</text>

  <rect x="856" y="258" width="296" height="86" rx="12" fill="#FFFFFF" stroke="#E2E8F0"/>
  <text x="872" y="286" font-family="Inter, Arial" font-size="13" fill="#0F172A">方案 B</text>
  <text x="872" y="308" font-family="Inter, Arial" font-size="12" fill="#475569">硬性違規：0 • 分數：82</text>
  <text x="872" y="328" font-family="Inter, Arial" font-size="12" fill="#475569">夜班公平：中 • 偏好滿足：高</text>

  <rect x="856" y="354" width="296" height="86" rx="12" fill="#FFFFFF" stroke="#E2E8F0"/>
  <text x="872" y="382" font-family="Inter, Arial" font-size="13" fill="#0F172A">方案 C</text>
  <text x="872" y="404" font-family="Inter, Arial" font-size="12" fill="#475569">硬性違規：0 • 分數：78</text>
  <text x="872" y="424" font-family="Inter, Arial" font-size="12" fill="#475569">夜班公平：高 • 偏好滿足：低</text>

  <!-- Actions -->
  <rect x="856" y="466" width="140" height="38" rx="10" fill="#FFFFFF" stroke="#E2E8F0"/>
  <text x="884" y="491" font-family="Inter, Arial" font-size="13" fill="#0F172A">預覽差異</text>

  <rect x="1012" y="466" width="140" height="38" rx="10" fill="#2563EB"/>
  <text x="1048" y="491" font-family="Inter, Arial" font-size="13" fill="#FFFFFF">套用到行事曆</text>

  <rect x="856" y="520" width="296" height="88" rx="12" fill="#FEF2F2" stroke="#FECACA"/>
  <text x="872" y="548" font-family="Inter, Arial" font-size="12" fill="#991B1B">注意：套用後仍可手動微調</text>
  <text x="872" y="570" font-family="Inter, Arial" font-size="11" fill="#991B1B">但每次修改都要重新驗證硬性規則。</text>

  <rect x="856" y="628" width="296" height="40" rx="12" fill="#FFFFFF" stroke="#E2E8F0"/>
  <text x="872" y="654" font-family="Inter, Arial" font-size="12" fill="#475569">歷史版本：v12（可回溯）</text>
</svg>
